# xmcd CD database file
#
# Track frame offsets:
#	150
#	23852
#	93317
#	181010
#	231608
#	314966
#
# Disc length: 4545 seconds
#
# Revision: 0
# Processed by: cddbd v1.5.2PL0 Copyright (c) Steve Scherf et al.
# Submitted via: CDex 1.70beta2
#
DISCID=4d11bf06
DTITLE=Jentsch Group Large - Cycles Suite
DYEAR=2009
DGENRE=Jazz
TTITLE0=I. Arrival
TTITLE1=II. Cycle of Life
TTITLE2=III. Home And Away
TTITLE3=IV. Old Folks Song
TTITLE4=V. Route 666
TTITLE5=VI. Departure
EXTD=YEAR: 2009
EXTT0=
EXTT1=
EXTT2=
EXTT3=
EXTT4=
EXTT5=
PLAYORDER=
